# xmcd
#
# Track frame offsets:
# 150
# 13683
# 29774
# 45367
# 57488
#
# Disc length: 933 seconds
#
# Revision: 0
# Processed by: cddbd v1.4PL0 Copyright (c) Steve Scherf et al.
# Submitted via: Audion 3.0.2 (http://www.panic.com/audion/)
#
DISCID=3c03a305
DTITLE=The Urban Legends - The Urban Legends
DYEAR=1900
DGENRE=
TTITLE0=In Brilliance
TTITLE1=On the Way to Work
TTITLE2=An Infinite Loop
TTITLE3=An Unborn Beautiful
TTITLE4=A Rich Nation
EXTD=
EXTT0=
EXTT1=
EXTT2=
EXTT3=
EXTT4=
PLAYORDER=
